#!OML:ASF H:\MichaelJackson\Top Level 1\Subject 1\Session 1\male.ASF
:FULLY-SPECIFIED
:DEGREES
197
root 5.49597 23.5192 -12.8972 5.25485 6.50308 -6.03951
lowerback 14.9146 0.121208 -1.84977
upperback 2.43268 0.243399 5.63182
thorax -5.81481 0.213248 7.04324
lowerneck -8.48741 -5.38802 1.40897
upperneck 3.13098 -7.66727 5.82155
head 2.6701 -3.59612 1.25169
rclavicle 5.96354e-015 7.95139e-015
rhumerus -18.9184 9.08482 -26.3019
rradius 105.202
rwrist -1.16182
rhand -37.3376 -30.1182
rfingers 7.12502
rthumb -10.4003 -59.841
lclavicle 5.96354e-015 7.95139e-015
lhumerus -2.66054 -16.0088 24.7449
lradius 117.285
lwrist 46.8064
lhand -21.412 4.87729
lfingers 7.12502
lthumb 4.97657 34.7988
rfemur -71.8107 -43.9716 9.58803
rtibia 122.573
rfoot 32.7056 7.40077
rtoes 26.4721
lfemur -34.1233 46.1948 9.96111
ltibia 127.388
lfoot 33.3191 -23.5671
ltoes 12.1453
198
root 5.48748 23.6368 -12.8163 4.71056 6.53389 -6.11497
lowerback 15.9425 0.111059 -1.84344
upperback 2.65554 0.256647 5.93862
thorax -6.1433 0.227417 7.39851
lowerneck -8.40551 -5.37168 1.49889
upperneck 2.9288 -7.63329 5.71351
head 2.57581 -3.58932 1.20751
rclavicle 1.98785e-014 -1.74931e-014
rhumerus -17.5633 9.3824 -25.9342
rradius 102.302
rwrist -2.75023
rhand -37.0921 -30.3432
rfingers 7.12502
rthumb -10.1634 -60.0777
lclavicle 1.98785e-014 -1.74931e-014
lhumerus -3.09285 -16.8073 24.9452
lradius 116.751
lwrist 43.955
lhand -20.3211 4.23949
lfingers 7.12502
lthumb 6.02978 34.1337
rfemur -75.0692 -46.9638 8.85092
rtibia 123.558
rfoot 32.0511 5.00315
rtoes 30.1946
lfemur -30.9019 50.5137 16.9563
ltibia 131.716
lfoot 34.9181 -25.1193
ltoes 13.5332
199
root 5.48332 23.7496 -12.7332 4.16956 6.57438 -6.27445
lowerback 16.9688 0.0946025 -1.69787
upperback 2.8703 0.291543 6.26879
thorax -6.4792 0.250254 7.69812
lowerneck -8.25453 -5.37652 1.54681
upperneck 2.67154 -7.61922 5.62931
head 2.45432 -3.59492 1.17976
rclavicle -3.18055e-014 7.15625e-014
rhumerus -16.1794 9.57784 -25.4228
rradius 99.4244
rwrist -4.31086
rhand -37.1949 -30.6439
rfingers 7.12502
rthumb -10.2626 -60.3735
lclavicle -3.18055e-014 7.15625e-014
lhumerus -3.59216 -17.3577 25.2635
lradius 116.413
lwrist 41.2455
lhand -19.9749 3.686
lfingers 7.12502
lthumb 6.36402 33.5704
rfemur -77.9743 -49.0093 8.26783
rtibia 123.234
rfoot 30.9418 2.17399
rtoes 33.8591
lfemur -26.4017 54.4568 25.4232
ltibia 135.527
lfoot 36.4024 -26.5805
ltoes 14.6543
200
root 5.48513 23.8598 -12.6483 3.68298 6.54852 -6.50814
lowerback 17.9291 0.094214 -1.41873
upperback 3.0701 0.37921 6.61095
thorax -6.79971 0.296004 7.92232
lowerneck -8.0525 -5.40951 1.5448
upperneck 2.41587 -7.63798 5.5752
head 2.3292 -3.61712 1.17008
rclavicle -3.57812e-015 -6.20208e-014
rhumerus -14.777 9.63292 -24.806
rradius 96.4785
rwrist -5.56228
rhand -37.5569 -30.7697
rfingers 7.12502
rthumb -10.6119 -60.4818
lclavicle -3.57812e-015 -6.20208e-014
lhumerus -4.12228 -17.6408 25.7066
lradius 116.279
lwrist 39.0829
lhand -20.2096 3.27805
lfingers 7.12502
lthumb 6.1375 33.1691
rfemur -80.3034 -49.9269 7.67405
rtibia 121.566
rfoot 29.2668 -0.807197
rtoes 37.1826
lfemur -20.6857 57.7086 35.0704
ltibia 138.736
lfoot 37.8609 -27.567
ltoes 16.1362
201
root 5.49473 23.9707 -12.562 3.29011 6.3901 -6.77225
lowerback 18.7818 0.126794 -1.04399
upperback 3.25273 0.534184 6.94042
thorax -7.08729 0.371242 8.05809
lowerneck -7.84102 -5.46579 1.51789
upperneck 2.23335 -7.69004 5.52813
head 2.22961 -3.6537 1.16497
rclavicle 1.90833e-014 -4.45278e-014
rhumerus -13.3344 9.54998 -24.1271
rradius 93.3565
rwrist -6.19218
rhand -38.1204 -30.7637
rfingers 7.12502
rthumb -11.1554 -60.4471
lclavicle 1.90833e-014 -4.45278e-014
lhumerus -4.67318 -17.6311 26.2301
lradius 116.373
lwrist 37.8333
lhand -20.7103 3.01191
lfingers 7.12502
lthumb 5.65409 32.9165
rfemur -81.8468 -49.7537 6.87053
rtibia 118.562
rfoot 26.9872 -3.41479
rtoes 39.5158
lfemur -14.5314 60.0378 44.7887
ltibia 141.255
lfoot 39.2921 -27.9553
ltoes 17.5169
202
root 5.51361 24.0834 -12.4752 3.02861 6.02593 -6.99985
lowerback 19.4952 0.211476 -0.640413
upperback 3.4192 0.764289 7.22814
thorax -7.32494 0.479943 8.10575
lowerneck -7.68002 -5.53533 1.49478
upperneck 2.19059 -7.76856 5.44854
head 2.18472 -3.69924 1.14487
rclavicle 3.33958e-014 3.18055e-015
rhumerus -11.7945 9.34957 -23.4079
rradius 89.9721
rwrist -6.08819
rhand -38.7773 -30.6842
rfingers 7.12502
rthumb -11.7889 -60.3324
lclavicle 3.33958e-014 3.18055e-015
lhumerus -5.25489 -17.3164 26.7806
lradius 116.703
lwrist 37.7074
lhand -21.3203 2.88732
lfingers 7.12502
lthumb 5.06508 32.8068
rfemur -82.5428 -48.6588 5.73854
rtibia 114.262
rfoot 24.2797 -5.21065
rtoes 40.4692
lfemur -8.90001 61.4916 53.226
ltibia 143.022
lfoot 40.6798 -27.56
ltoes 19.12
203
root 5.54305 24.1974 -12.389 2.91834 5.40853 -7.12901
lowerback 20.0614 0.3609 -0.26455
upperback 3.57377 1.06891 7.45167
thorax -7.50376 0.622261 8.07042
lowerneck -7.60695 -5.60865 1.48708
upperneck 2.31458 -7.86302 5.31
head 2.20779 -3.74791 1.09839
rclavicle -6.36111e-015 -7.63333e-014
rhumerus -10.0961 9.06739 -22.6438
rradius 86.2631
rwrist -5.24553
rhand -39.429 -30.6675
rfingers 7.12502
rthumb -12.4173 -60.2786
lclavicle -6.36111e-015 -7.63333e-014
lhumerus -5.87699 -16.6972 27.2833
lradius 117.252
lwrist 38.7513
lhand -21.7922 2.80304
lfingers 7.12502
lthumb 4.60945 32.7329
rfemur -82.4639 -46.9021 4.2921
rtibia 108.729
rfoot 21.3994 -5.95589
rtoes 39.5932
lfemur -4.58306 62.3063 59.255
ltibia 143.999
lfoot 41.7304 -26.7962
ltoes 20.6023
204
root 5.58241 24.3102 -12.3041 2.96125 4.5378 -7.11959
lowerback 20.4891 0.575012 0.0448543
upperback 3.72076 1.43505 7.59918
thorax -7.62175 0.792571 7.96381
lowerneck -7.65562 -5.67835 1.51329
upperneck 2.6041 -7.96413 5.08481
head 2.3021 -3.79555 1.01278
rclavicle 7.55382e-015 -3.18055e-014
rhumerus -8.19963 8.7318 -21.8179
rradius 82.2316
rwrist -3.85655
rhand -39.9749 -30.844
rfingers 7.12502
rthumb -12.9436 -60.4225
lclavicle 7.55382e-015 -3.18055e-014
lhumerus -6.53766 -15.8014 27.6563
lradius 117.97
lwrist 40.8192
lhand -22.1058 2.74577
lfingers 7.12502
lthumb 4.3066 32.682
rfemur -81.7487 -44.7786 2.61081
rtibia 102.072
rfoot 18.4816 -5.84459
rtoes 36.9665
lfemur -1.98167 62.7217 62.3104
ltibia 144.185
lfoot 42.2833 -25.9628
ltoes 21.757
205
root 5.62948 24.4188 -12.2196 3.13512 3.45911 -6.96904
lowerback 20.7949 0.84301 0.280177
upperback 3.8722 1.8445 7.67789
thorax -7.67207 0.982264 7.80385
lowerneck -7.835 -5.74272 1.57277
upperneck 3.01114 -8.06621 4.77581
head 2.45405 -3.84102 0.889072
rclavicle -3.97569e-016 -4.13472e-014
rhumerus -6.09332 8.36005 -20.8999
rradius 77.9158
rwrist -2.26236
rhand -40.3714 -31.2288
rfingers 7.12502
rthumb -13.3258 -60.7827
lclavicle -3.97569e-016 -4.13472e-014
lhumerus -7.21155 -14.6825 27.8274
lradius 118.774
lwrist 43.5798
lhand -22.285 2.76342
lfingers 7.12502
lthumb 4.1336 32.7031
rfemur -80.4932 -42.5298 0.767693
rtibia 94.4316
rfoot 15.5536 -5.26574
rtoes 32.9611
lfemur -1.2558 62.8805 62.2779
ltibia 143.615
lfoot 42.2419 -25.4617
ltoes 22.1752
206
root 5.68117 24.5208 -12.1342 3.40667 2.2572 -6.71794
lowerback 21.007 1.14262 0.469024
upperback 4.03049 2.27588 7.71305
thorax -7.66436 1.18132 7.61078
lowerneck -8.13039 -5.80331 1.65602
upperneck 3.47211 -8.16678 4.40552
head 2.64217 -3.88516 0.736761
rclavicle 8.74653e-015 -3.65764e-014
rhumerus -3.83629 7.97858 -19.8529
rradius 73.4176
rwrist -0.837866
rhand -40.6171 -31.7392
rfingers 7.12502
rthumb -13.5626 -61.2775
lclavicle 8.74653e-015 -3.65764e-014
lhumerus -7.85971 -13.4223 27.7533
lradius 119.543
lwrist 46.5987
lhand -22.4476 2.84703
lfingers 7.12502
lthumb 3.97654 32.7897
rfemur -78.7369 -40.2963 -1.2
rtibia 85.989
rfoot 12.6214 -4.61332
rtoes 27.8535
lfemur -2.43359 62.8055 59.3603
ltibia 142.352
lfoot 41.6259 -25.5586
ltoes 21.6201
207
root 5.73404 24.6148 -12.0462 3.73291 1.04746 -6.44145
lowerback 21.1571 1.44549 0.672523
upperback 4.19873 2.70949 7.74066
thorax -7.60861 1.37991 7.39718
lowerneck -8.50527 -5.86688 1.74721
upperneck 3.91105 -8.27059 4.02072
head 2.83799 -3.93196 0.574753
rclavicle 1.03368e-014 -3.18055e-015
rhumerus -1.5348 7.56649 -18.6632
rradius 68.8459
rwrist 0.160685
rhand -40.7468 -32.2343
rfingers 7.12502
rthumb -13.6876 -61.7641
lclavicle 1.03368e-014 -3.18055e-015
lhumerus -8.43794 -12.1096 27.422
lradius 120.161
lwrist 49.4238
lhand -22.6452 2.98643
lfingers 7.12502
lthumb 3.7857 32.9326
rfemur -76.4595 -38.1222 -3.31577
rtibia 76.962
rfoot 9.7368 -4.29542
rtoes 21.9766
lfemur -5.31936 62.4107 54.1091
ltibia 140.497
lfoot 40.5855 -26.1301
ltoes 20.4116
208
root 5.78397 24.6995 -11.9547 4.0801 -0.0455482 -6.22454
lowerback 21.2743 1.721 0.944326
upperback 4.37035 3.12291 7.80329
thorax -7.52444 1.56751 7.18804
lowerneck -8.90086 -5.93456 1.8278
upperneck 4.25584 -8.37548 3.67314
head 3.00942 -3.98149 0.425643
rclavicle -2.62396e-014 -2.70347e-014
rhumerus 0.701497 7.09949 -17.332
rradius 64.2975
rwrist 0.619141
rhand -40.8038 -32.5797
rfingers 7.12502
rthumb -13.7426 -62.1059
lclavicle -2.62396e-014 -2.70347e-014
lhumerus -8.91512 -10.83 26.8575
lradius 120.54
lwrist 51.6906
lhand -22.9185 3.1848
lfingers 7.12502
lthumb 3.52185 33.1354
rfemur -73.6175 -35.9612 -5.6682
rtibia 67.6395
rfoot 6.99592 -4.7329
rtoes 15.7293
lfemur -9.437 61.5703 47.3922
ltibia 138.181
lfoot 39.3369 -26.8043
ltoes 19.2449
209
root 5.82763 24.7738 -11.8596 4.42372 -0.917225 -6.13631
lowerback 21.3817 1.94389 1.31942
upperback 4.53528 3.49624 7.93702
thorax -7.43283 1.7351 7.01059
lowerneck -9.25888 -6.00396 1.88092
upperneck 4.45818 -8.47603 3.40302
head 3.13099 -4.03137 0.308671
rclavicle -1.66979e-014 -4.29375e-014
rhumerus 2.77931 6.53937 -15.8858
rradius 59.8262
rwrist 0.692764
rhand -40.8331 -32.6949
rfingers 7.12502
rthumb -13.7708 -62.2192
lclavicle -1.66979e-014 -4.29375e-014
lhumerus -9.30067 -9.63635 26.1193
lradius 120.65
lwrist 53.2062
lhand -23.2533 3.46637
lfingers 7.12502
lthumb 3.19853 33.4221
rfemur -70.137 -33.6764 -8.41209
rtibia 58.2462
rfoot 4.58957 -6.35589
rtoes 9.67768
lfemur -14.1553 60.2349 40.1824
ltibia 135.55
lfoot 37.8464 -27.4802
ltoes 18.0659
